<?xml version="1.0" standalone="no"?>
<!DOCTYPE svg PUBLIC "-//W3C//DTD SVG 20010904//EN"
 "http://www.w3.org/TR/2001/REC-SVG-20010904/DTD/svg10.dtd">
<svg version="1.0" xmlns="http://www.w3.org/2000/svg"
 width="512.000000pt" height="512.000000pt" viewBox="0 0 512.000000 512.000000"
 preserveAspectRatio="xMidYMid meet">
<metadata>
Created by potrace 1.11, written by Peter Selinger 2001-2013
</metadata>
<g transform="translate(0.000000,512.000000) scale(0.100000,-0.100000)"
fill="#000000" stroke="none">
<path d="M2559 4175 c-15 -8 -43 -36 -62 -62 -48 -66 -156 -284 -161 -326 -6
-47 25 -112 63 -131 42 -22 47 -21 119 26 75 49 105 54 147 25 122 -84 209
-264 198 -412 -11 -151 -109 -292 -215 -309 -59 -9 -145 44 -207 128 -22 29
-45 59 -53 67 -19 20 -60 71 -83 103 -11 16 -25 33 -31 40 -5 6 -37 47 -70 91
-32 44 -64 86 -71 95 -331 419 -372 445 -498 316 -40 -42 -82 -102 -126 -182
-37 -65 -89 -157 -116 -204 -27 -47 -75 -134 -107 -195 -33 -60 -118 -216
-191 -345 -170 -304 -198 -355 -292 -541 -44 -84 -98 -181 -120 -214 -108
-159 -123 -236 -64 -323 54 -78 49 -77 286 -78 116 -1 246 -2 290 -3 159 -3
248 44 340 181 17 23 32 45 35 48 6 6 9 11 100 180 40 74 87 158 105 185 18
28 60 105 95 170 127 241 143 271 171 311 48 70 107 109 164 108 55 -1 121
-53 220 -175 11 -14 41 -49 66 -79 163 -196 254 -341 330 -525 62 -150 51
-317 -26 -418 -118 -155 -296 -115 -394 89 -48 100 -47 154 10 326 49 151 38
218 -42 244 -46 16 -81 -3 -119 -62 -102 -162 -133 -390 -77 -575 79 -259 280
-399 522 -363 42 6 145 53 173 79 148 137 204 260 207 455 2 161 -34 292 -131
477 -47 91 -87 196 -83 219 1 5 0 14 -1 19 -1 6 -2 37 -1 70 2 75 33 142 98
212 67 72 65 69 201 259 67 94 145 192 172 218 57 54 120 85 155 78 60 -11
151 -123 250 -307 27 -49 91 -165 142 -258 51 -92 93 -169 93 -172 0 -3 10
-22 23 -43 13 -20 72 -128 131 -240 93 -176 107 -210 111 -259 6 -104 -65
-174 -179 -176 -66 -1 -116 24 -182 88 -83 81 -172 229 -421 701 -55 106 -91
150 -133 166 -45 17 -58 17 -77 -4 -15 -17 -18 -36 -17 -112 1 -100 13 -137
76 -236 19 -30 54 -91 78 -135 24 -44 54 -100 68 -125 14 -25 54 -101 90 -170
106 -204 214 -356 278 -388 74 -38 266 -50 646 -42 102 3 159 49 177 142 11
60 -14 137 -74 228 -23 36 -57 92 -75 124 -18 33 -74 132 -125 220 -50 89
-113 202 -140 251 -26 50 -51 95 -55 100 -4 6 -35 64 -70 130 -35 66 -75 143
-91 170 -63 113 -145 270 -227 434 -146 291 -232 370 -346 316 -18 -9 -61 -48
-97 -87 -106 -118 -119 -131 -161 -159 -90 -60 -173 5 -289 226 -116 223 -174
306 -227 326 -33 13 -73 10 -103 -6z m-753 -740 c74 -44 134 -158 129 -245 -9
-128 -52 -246 -156 -417 -136 -224 -262 -439 -304 -518 -61 -115 -77 -139
-138 -199 -94 -92 -198 -118 -332 -82 -59 17 -103 75 -110 148 -4 45 -1 54
125 294 34 66 70 133 80 149 10 17 30 53 45 80 22 40 140 240 186 315 5 8 31
53 59 100 27 47 54 90 60 97 5 7 10 14 10 17 0 11 123 214 145 239 48 54 131
63 201 22z"/>
<path d="M2265 980 c-86 -13 -162 -71 -199 -150 -24 -54 -28 -184 -7 -244 21
-60 84 -122 143 -142 58 -19 193 -15 241 6 l27 13 0 136 0 137 -92 -1 c-90 0
-92 -1 -98 -25 -12 -48 -2 -60 51 -60 l49 0 0 -60 c0 -54 -3 -62 -22 -69 -31
-11 -93 -4 -134 15 -42 20 -70 64 -81 129 -29 160 91 266 247 219 25 -8 46
-14 46 -14 1 0 4 12 7 28 3 15 8 34 12 43 4 11 0 19 -12 24 -43 17 -121 24
-178 15z"/>
<path d="M1083 953 c-1 -28 -11 -196 -18 -288 -2 -27 -7 -91 -10 -141 l-6 -90
45 -1 c25 -1 46 2 47 6 0 8 9 160 13 249 2 41 6 76 9 78 2 2 19 -42 36 -98 76
-242 72 -233 110 -233 l35 1 60 177 c33 97 61 175 63 174 1 -2 5 -66 9 -142 3
-77 7 -151 9 -165 2 -14 4 -30 4 -37 1 -7 17 -11 44 -10 l42 2 -1 55 c-2 64
-15 311 -19 355 -1 17 -3 54 -4 83 l-1 52 -54 0 -53 0 -21 -57 c-11 -32 -41
-116 -65 -188 l-45 -130 -21 75 c-12 41 -25 82 -28 90 -4 8 -21 58 -38 110
l-31 95 -55 3 c-54 3 -55 2 -56 -25z"/>
<path d="M1765 968 c-12 -41 -25 -84 -26 -88 0 -3 -33 -103 -73 -223 -52 -157
-69 -220 -60 -224 7 -2 29 -3 49 -1 36 4 38 6 60 71 12 37 20 67 17 67 -2 0 0
6 6 13 10 12 146 17 155 6 2 -2 15 -38 28 -79 l24 -75 52 -3 51 -3 -23 68
c-13 37 -53 161 -90 276 l-66 207 -50 0 c-31 0 -51 -5 -54 -12z m63 -143 c-3
-3 5 -36 17 -73 13 -37 22 -68 21 -70 -5 -5 -86 -5 -92 1 -8 8 38 147 50 147
5 0 7 -2 4 -5z"/>
<path d="M2559 973 c-4 -37 -11 -140 -25 -353 -2 -41 -6 -101 -8 -132 l-4 -58
44 0 c24 0 45 3 45 8 3 16 7 73 14 202 4 74 8 136 10 138 2 2 11 -23 20 -55 9
-32 34 -110 54 -173 38 -115 38 -115 70 -116 18 0 35 4 38 9 3 5 32 87 64 181
32 94 59 160 60 146 0 -14 3 -54 5 -90 2 -36 6 -101 8 -145 3 -44 5 -85 5 -91
1 -7 19 -12 47 -11 l45 1 -6 105 c-10 191 -15 285 -19 336 -3 28 -5 62 -5 78
-1 26 -3 27 -55 27 l-54 0 -15 -47 c-8 -27 -34 -102 -57 -168 -23 -66 -42
-128 -43 -137 -1 -10 -4 -18 -7 -18 -3 0 -32 82 -65 183 l-60 182 -52 3 c-29
2 -53 -1 -54 -5z"/>
<path d="M3205 863 c-21 -65 -60 -185 -86 -268 -27 -82 -49 -154 -49 -158 0
-4 21 -7 47 -5 l46 3 27 80 26 79 75 0 74 0 26 -79 25 -80 52 -1 c28 0 49 3
46 8 -3 4 -7 16 -9 25 -2 15 -87 277 -145 453 l-18 55 -50 3 -49 3 -38 -118z
m101 -70 c4 -21 14 -53 21 -72 17 -41 9 -48 -47 -43 -33 3 -40 7 -35 20 3 9
14 42 23 74 9 32 20 58 24 58 4 0 10 -17 14 -37z"/>
<path d="M3552 706 l0 -274 149 0 c82 0 150 3 150 6 6 34 5 74 -2 78 -5 3 -51
5 -103 5 -65 0 -95 3 -98 12 -2 7 -3 110 -3 230 l1 217 -47 0 -47 0 0 -274z"/>
<path d="M3897 973 c-2 -4 -4 -127 -3 -273 l1 -265 45 0 45 0 0 270 0 270 -42
3 c-22 2 -43 -1 -46 -5z"/>
<path d="M4010 935 l0 -45 74 0 74 0 0 -207 c0 -115 1 -218 1 -230 1 -19 7
-21 45 -21 25 0 46 5 48 11 2 7 3 110 3 230 l-1 217 72 0 c79 0 84 4 76 63
l-4 27 -194 0 -194 0 0 -45z"/>
</g>
</svg>
